<mxfile host="app.diagrams.net" modified="2022-02-25T07:02:34.647Z" agent="5.0 (Macintosh; Intel Mac OS X 10_15_7) AppleWebKit/537.36 (KHTML, like Gecko) Chrome/98.0.4758.109 Safari/537.36" etag="AOnQQK7vPeHW1pDzGzop" version="16.4.7" type="github">
  <diagram id="C5RBs43oDa-KdzZeNtuy" name="Page-1">
    <mxGraphModel dx="1359" dy="549" grid="1" gridSize="10" guides="1" tooltips="1" connect="1" arrows="1" fold="1" page="1" pageScale="1" pageWidth="827" pageHeight="1169" math="0" shadow="0">
      <root>
        <mxCell id="WIyWlLk6GJQsqaUBKTNV-0" />
        <mxCell id="WIyWlLk6GJQsqaUBKTNV-1" parent="WIyWlLk6GJQsqaUBKTNV-0" />
        <mxCell id="iclus__Weal8bIbqD8X2-11" style="edgeStyle=orthogonalEdgeStyle;rounded=0;orthogonalLoop=1;jettySize=auto;html=1;exitX=0.5;exitY=1;exitDx=0;exitDy=0;exitPerimeter=0;" edge="1" parent="WIyWlLk6GJQsqaUBKTNV-1" source="iclus__Weal8bIbqD8X2-0" target="iclus__Weal8bIbqD8X2-1">
          <mxGeometry relative="1" as="geometry" />
        </mxCell>
        <mxCell id="iclus__Weal8bIbqD8X2-0" value="开始" style="strokeWidth=2;html=1;shape=mxgraph.flowchart.start_1;whiteSpace=wrap;" vertex="1" parent="WIyWlLk6GJQsqaUBKTNV-1">
          <mxGeometry x="364" y="10" width="100" height="60" as="geometry" />
        </mxCell>
        <mxCell id="iclus__Weal8bIbqD8X2-12" style="edgeStyle=orthogonalEdgeStyle;rounded=0;orthogonalLoop=1;jettySize=auto;html=1;exitX=0.5;exitY=1;exitDx=0;exitDy=0;entryX=0.5;entryY=0;entryDx=0;entryDy=0;entryPerimeter=0;" edge="1" parent="WIyWlLk6GJQsqaUBKTNV-1" source="iclus__Weal8bIbqD8X2-1" target="iclus__Weal8bIbqD8X2-3">
          <mxGeometry relative="1" as="geometry" />
        </mxCell>
        <mxCell id="iclus__Weal8bIbqD8X2-1" value="匹配成功" style="rounded=1;whiteSpace=wrap;html=1;absoluteArcSize=1;arcSize=14;strokeWidth=2;" vertex="1" parent="WIyWlLk6GJQsqaUBKTNV-1">
          <mxGeometry x="364" y="90" width="100" height="30" as="geometry" />
        </mxCell>
        <mxCell id="iclus__Weal8bIbqD8X2-14" style="edgeStyle=orthogonalEdgeStyle;rounded=0;orthogonalLoop=1;jettySize=auto;html=1;exitX=0.5;exitY=1;exitDx=0;exitDy=0;" edge="1" parent="WIyWlLk6GJQsqaUBKTNV-1" source="iclus__Weal8bIbqD8X2-2" target="iclus__Weal8bIbqD8X2-4">
          <mxGeometry relative="1" as="geometry" />
        </mxCell>
        <mxCell id="iclus__Weal8bIbqD8X2-2" value="开启世界BOSS协程" style="rounded=1;whiteSpace=wrap;html=1;absoluteArcSize=1;arcSize=14;strokeWidth=2;" vertex="1" parent="WIyWlLk6GJQsqaUBKTNV-1">
          <mxGeometry x="356" y="210" width="116" height="40" as="geometry" />
        </mxCell>
        <mxCell id="iclus__Weal8bIbqD8X2-13" value="Y" style="edgeStyle=orthogonalEdgeStyle;rounded=0;orthogonalLoop=1;jettySize=auto;html=1;exitX=0.5;exitY=1;exitDx=0;exitDy=0;exitPerimeter=0;" edge="1" parent="WIyWlLk6GJQsqaUBKTNV-1" source="iclus__Weal8bIbqD8X2-3" target="iclus__Weal8bIbqD8X2-2">
          <mxGeometry relative="1" as="geometry" />
        </mxCell>
        <mxCell id="iclus__Weal8bIbqD8X2-20" value="N" style="edgeStyle=orthogonalEdgeStyle;rounded=0;orthogonalLoop=1;jettySize=auto;html=1;" edge="1" parent="WIyWlLk6GJQsqaUBKTNV-1" source="iclus__Weal8bIbqD8X2-3" target="iclus__Weal8bIbqD8X2-19">
          <mxGeometry relative="1" as="geometry" />
        </mxCell>
        <mxCell id="iclus__Weal8bIbqD8X2-3" value="是否是世界BOSS" style="strokeWidth=2;html=1;shape=mxgraph.flowchart.decision;whiteSpace=wrap;" vertex="1" parent="WIyWlLk6GJQsqaUBKTNV-1">
          <mxGeometry x="352" y="140" width="124" height="50" as="geometry" />
        </mxCell>
        <mxCell id="iclus__Weal8bIbqD8X2-15" style="edgeStyle=orthogonalEdgeStyle;rounded=0;orthogonalLoop=1;jettySize=auto;html=1;exitX=0.5;exitY=1;exitDx=0;exitDy=0;entryX=0.5;entryY=0;entryDx=0;entryDy=0;" edge="1" parent="WIyWlLk6GJQsqaUBKTNV-1" source="iclus__Weal8bIbqD8X2-4" target="iclus__Weal8bIbqD8X2-8">
          <mxGeometry relative="1" as="geometry" />
        </mxCell>
        <mxCell id="iclus__Weal8bIbqD8X2-4" value="获取技能配置，开始技能倒计时" style="rounded=1;whiteSpace=wrap;html=1;absoluteArcSize=1;arcSize=14;strokeWidth=2;" vertex="1" parent="WIyWlLk6GJQsqaUBKTNV-1">
          <mxGeometry x="364" y="270" width="100" height="40" as="geometry" />
        </mxCell>
        <mxCell id="iclus__Weal8bIbqD8X2-16" style="edgeStyle=orthogonalEdgeStyle;rounded=0;orthogonalLoop=1;jettySize=auto;html=1;exitX=0.5;exitY=1;exitDx=0;exitDy=0;" edge="1" parent="WIyWlLk6GJQsqaUBKTNV-1" source="iclus__Weal8bIbqD8X2-8" target="iclus__Weal8bIbqD8X2-9">
          <mxGeometry relative="1" as="geometry" />
        </mxCell>
        <mxCell id="iclus__Weal8bIbqD8X2-8" value="执行技能" style="rounded=1;whiteSpace=wrap;html=1;absoluteArcSize=1;arcSize=14;strokeWidth=2;" vertex="1" parent="WIyWlLk6GJQsqaUBKTNV-1">
          <mxGeometry x="364" y="330" width="100" height="30" as="geometry" />
        </mxCell>
        <mxCell id="iclus__Weal8bIbqD8X2-17" value="Y" style="edgeStyle=orthogonalEdgeStyle;rounded=0;orthogonalLoop=1;jettySize=auto;html=1;exitX=0.5;exitY=1;exitDx=0;exitDy=0;exitPerimeter=0;" edge="1" parent="WIyWlLk6GJQsqaUBKTNV-1" source="iclus__Weal8bIbqD8X2-9" target="iclus__Weal8bIbqD8X2-10">
          <mxGeometry relative="1" as="geometry" />
        </mxCell>
        <mxCell id="iclus__Weal8bIbqD8X2-18" value="N" style="edgeStyle=orthogonalEdgeStyle;rounded=0;orthogonalLoop=1;jettySize=auto;html=1;entryX=1;entryY=0.5;entryDx=0;entryDy=0;" edge="1" parent="WIyWlLk6GJQsqaUBKTNV-1" source="iclus__Weal8bIbqD8X2-9" target="iclus__Weal8bIbqD8X2-4">
          <mxGeometry relative="1" as="geometry">
            <Array as="points">
              <mxPoint x="484" y="405" />
              <mxPoint x="484" y="290" />
            </Array>
          </mxGeometry>
        </mxCell>
        <mxCell id="iclus__Weal8bIbqD8X2-9" value="游戏是否结束" style="strokeWidth=2;html=1;shape=mxgraph.flowchart.decision;whiteSpace=wrap;" vertex="1" parent="WIyWlLk6GJQsqaUBKTNV-1">
          <mxGeometry x="364" y="380" width="100" height="50" as="geometry" />
        </mxCell>
        <mxCell id="iclus__Weal8bIbqD8X2-10" value="结束" style="strokeWidth=2;html=1;shape=mxgraph.flowchart.start_1;whiteSpace=wrap;" vertex="1" parent="WIyWlLk6GJQsqaUBKTNV-1">
          <mxGeometry x="364" y="470" width="100" height="60" as="geometry" />
        </mxCell>
        <mxCell id="iclus__Weal8bIbqD8X2-21" style="edgeStyle=orthogonalEdgeStyle;rounded=0;orthogonalLoop=1;jettySize=auto;html=1;" edge="1" parent="WIyWlLk6GJQsqaUBKTNV-1" source="iclus__Weal8bIbqD8X2-19" target="iclus__Weal8bIbqD8X2-10">
          <mxGeometry relative="1" as="geometry">
            <Array as="points">
              <mxPoint x="585" y="450" />
              <mxPoint x="414" y="450" />
            </Array>
          </mxGeometry>
        </mxCell>
        <mxCell id="iclus__Weal8bIbqD8X2-19" value="正常战斗逻辑" style="whiteSpace=wrap;html=1;strokeWidth=2;" vertex="1" parent="WIyWlLk6GJQsqaUBKTNV-1">
          <mxGeometry x="540" y="270" width="90" height="40" as="geometry" />
        </mxCell>
      </root>
    </mxGraphModel>
  </diagram>
</mxfile>
